<svg width="51" height="46" viewBox="0 0 51 46" fill="none" xmlns="http://www.w3.org/2000/svg">
<g clip-path="url(#clip0_11_359)">
<path d="M49.666 29.4769L49.6674 29.4782C50.7364 30.441 50.6506 32.077 49.5791 32.93L49.5779 32.9309L36.191 43.644C35.284 44.368 34.1623 44.7579 33.0083 44.7579H1.41667C0.955351 44.7579 0.575521 44.378 0.575521 43.9167V35.4167C0.575521 34.9554 0.955351 34.5756 1.41667 34.5756H6.32188H6.52587L6.68432 34.4471L10.8012 31.1093C12.5588 29.6865 14.7421 28.9089 17 28.9089H31.1667C32.5442 28.9089 33.6299 30.1368 33.3968 31.5508C33.2192 32.6233 32.1848 33.4245 31.0161 33.4245H24.0833C22.9863 33.4245 22.0911 34.3197 22.0911 35.4167C22.0911 36.5137 22.9863 37.4089 24.0833 37.4089H34.5578C35.979 37.4089 37.355 36.9319 38.4594 36.0429C38.4598 36.0426 38.4601 36.0423 38.4605 36.042L46.6402 29.5L46.642 29.4986C47.5518 28.7648 48.8607 28.7467 49.666 29.4769Z" stroke="#D173CC" stroke-width="1.15104"/>
<line x1="6.64061" y1="34.2619" x2="6.73066" y2="44.8869" stroke="#D173CC" stroke-width="0.885417"/>
<circle cx="5.35677" cy="40.9505" r="0.309896" fill="#D173CC"/>
<circle cx="5.35677" cy="42.1015" r="0.309896" fill="#D173CC"/>
<circle cx="5.35677" cy="43.2526" r="0.309896" fill="#D173CC"/>
<mask id="path-6-inside-1_11_359" fill="white">
<path d="M17.917 19.1889C17.1341 19.1889 16.5459 18.6916 16.3049 17.8899H18.3501V17.4569H16.2136C16.1946 17.3133 16.185 17.1687 16.185 17.0239C16.185 16.9524 16.1871 16.8801 16.1906 16.8074H18.3501V16.3743H16.2363C16.3679 15.5845 16.7934 14.8588 17.917 14.8588C18.7512 14.8588 19.1148 15.2154 19.4603 15.8309L19.8379 15.6187C19.49 14.9993 19.0165 14.4258 17.917 14.4258C16.5411 14.4258 15.752 15.3728 15.752 17.0239C15.752 18.5535 16.6422 19.6219 17.917 19.6219C19.0165 19.6219 19.49 19.0486 19.8379 18.429L19.4603 18.2168C19.1148 18.8326 18.7512 19.1889 17.917 19.1889Z"/>
</mask>
<path d="M17.917 19.1889C17.1341 19.1889 16.5459 18.6916 16.3049 17.8899H18.3501V17.4569H16.2136C16.1946 17.3133 16.185 17.1687 16.185 17.0239C16.185 16.9524 16.1871 16.8801 16.1906 16.8074H18.3501V16.3743H16.2363C16.3679 15.5845 16.7934 14.8588 17.917 14.8588C18.7512 14.8588 19.1148 15.2154 19.4603 15.8309L19.8379 15.6187C19.49 14.9993 19.0165 14.4258 17.917 14.4258C16.5411 14.4258 15.752 15.3728 15.752 17.0239C15.752 18.5535 16.6422 19.6219 17.917 19.6219C19.0165 19.6219 19.49 19.0486 19.8379 18.429L19.4603 18.2168C19.1148 18.8326 18.7512 19.1889 17.917 19.1889Z" fill="#D173CC"/>
<path d="M16.3049 17.8899V15.6764H13.3282L14.1851 18.5271L16.3049 17.8899ZM18.3501 17.8899V20.1034H20.5636V17.8899H18.3501ZM18.3501 17.4569H20.5636V15.2433H18.3501V17.4569ZM16.2136 17.4569L14.0191 17.7472L14.2736 19.6704H16.2136V17.4569ZM16.185 17.0239L13.9714 17.0239L13.9714 17.0244L16.185 17.0239ZM16.1906 16.8074V14.5938H14.08L13.9796 16.7021L16.1906 16.8074ZM18.3501 16.8074V19.0209H20.5636V16.8074H18.3501ZM18.3501 16.3743H20.5636V14.1608H18.3501V16.3743ZM16.2363 16.3743L14.0529 16.0104L13.6233 18.5879H16.2363V16.3743ZM19.4603 15.8309L17.5301 16.9145L18.6141 18.8455L20.5447 17.7607L19.4603 15.8309ZM19.8379 15.6187L20.9223 17.5485L22.8517 16.4643L21.7678 14.5347L19.8379 15.6187ZM19.8379 18.429L21.768 19.5127L22.8514 17.5833L20.9223 16.4993L19.8379 18.429ZM19.4603 18.2168L20.5447 16.2871L18.6138 15.2021L17.5299 17.1335L19.4603 18.2168ZM17.917 16.9754C17.958 16.9754 18.0226 16.9824 18.1 17.0094C18.1777 17.0366 18.2488 17.0774 18.3076 17.1254C18.4276 17.2233 18.4393 17.3011 18.4248 17.2527L14.1851 18.5271C14.658 20.1003 15.9958 21.4025 17.917 21.4025V16.9754ZM16.3049 20.1034H18.3501V15.6764H16.3049V20.1034ZM20.5636 17.8899V17.4569H16.1365V17.8899H20.5636ZM18.3501 15.2433H16.2136V19.6704H18.3501V15.2433ZM18.408 17.1665C18.4017 17.119 18.3985 17.0712 18.3985 17.0233L13.9714 17.0244C13.9715 17.2662 13.9874 17.5076 14.0191 17.7472L18.408 17.1665ZM18.3985 17.0239C18.3985 16.9963 18.3994 16.9604 18.4016 16.9126L13.9796 16.7021C13.9749 16.7999 13.9714 16.9085 13.9714 17.0239H18.3985ZM16.1906 19.0209H18.3501V14.5938H16.1906V19.0209ZM20.5636 16.8074V16.3743H16.1365V16.8074H20.5636ZM18.3501 14.1608H16.2363V18.5879H18.3501V14.1608ZM18.4197 16.7382C18.4307 16.6726 18.4406 16.6536 18.4343 16.6685C18.4269 16.6859 18.3952 16.7538 18.3177 16.8362C18.2345 16.9248 18.1302 16.9958 18.0245 17.0384C17.9246 17.0785 17.8757 17.0723 17.917 17.0723V12.6453C16.8305 12.6453 15.8288 13.02 15.0916 13.8045C14.4166 14.5228 14.1581 15.3792 14.0529 16.0104L18.4197 16.7382ZM17.917 17.0723C17.9697 17.0723 17.9464 17.0781 17.8754 17.0587C17.7965 17.037 17.7 16.9954 17.6064 16.9301C17.5174 16.8681 17.47 16.8119 17.4602 16.7996C17.4549 16.793 17.4768 16.8196 17.5301 16.9145L21.3905 14.7473C21.1615 14.3394 20.7857 13.7497 20.1374 13.2979C19.4409 12.8126 18.6678 12.6453 17.917 12.6453V17.0723ZM20.5447 17.7607L20.9223 17.5485L18.7535 13.689L18.3759 13.9012L20.5447 17.7607ZM21.7678 14.5347C21.5382 14.1259 21.1475 13.506 20.4734 13.0087C19.7524 12.4768 18.8859 12.2122 17.917 12.2122V16.6393C17.9582 16.6393 17.9814 16.642 17.9895 16.6431C17.9972 16.6442 17.9917 16.644 17.976 16.6391C17.96 16.6342 17.9383 16.6259 17.9133 16.6132C17.8883 16.6005 17.8652 16.586 17.8451 16.5712C17.8043 16.5411 17.7913 16.521 17.8039 16.5371C17.8106 16.5457 17.8228 16.5623 17.8408 16.5902C17.859 16.6182 17.8809 16.6546 17.908 16.7028L21.7678 14.5347ZM17.917 12.2122C16.6845 12.2122 15.4749 12.6604 14.6181 13.6886C13.8097 14.6586 13.5384 15.8778 13.5384 17.0239H17.9655C17.9655 16.7831 17.9947 16.6321 18.0184 16.5525C18.0411 16.4762 18.0535 16.4813 18.019 16.5227C17.9799 16.5697 17.9235 16.6113 17.8699 16.6343C17.8229 16.6544 17.8272 16.6393 17.917 16.6393V12.2122ZM13.5384 17.0239C13.5384 18.2068 13.8838 19.387 14.6559 20.3136C15.4518 21.2687 16.6125 21.8355 17.917 21.8355V17.4084C17.913 17.4084 17.9425 17.4089 17.9861 17.4295C18.0287 17.4496 18.0518 17.4733 18.057 17.4795C18.0652 17.4894 17.9655 17.3706 17.9655 17.0239H13.5384ZM17.917 21.8355C18.8857 21.8355 19.7522 21.5711 20.4733 21.0391C21.1475 20.5418 21.5383 19.9218 21.768 19.5127L17.9078 17.3453C17.8807 17.3934 17.8588 17.4297 17.8407 17.4578C17.8228 17.4857 17.8105 17.5022 17.8038 17.5108C17.7913 17.5268 17.8043 17.5067 17.8452 17.4765C17.8654 17.4617 17.8885 17.4472 17.9134 17.4345C17.9384 17.4218 17.9601 17.4135 17.9761 17.4086C17.9918 17.4037 17.9973 17.4035 17.9896 17.4046C17.9815 17.4057 17.9583 17.4084 17.917 17.4084V21.8355ZM20.9223 16.4993L20.5447 16.2871L18.3759 20.1466L18.7535 20.3587L20.9223 16.4993ZM17.5299 17.1335C17.4767 17.2284 17.4548 17.2549 17.4602 17.2483C17.47 17.2359 17.5175 17.1796 17.6065 17.1176C17.7002 17.0523 17.7968 17.0107 17.8757 16.989C17.9465 16.9696 17.9698 16.9754 17.917 16.9754V21.4025C18.6675 21.4025 19.4407 21.2353 20.1373 20.75C20.7857 20.2982 21.1616 19.7083 21.3907 19.3001L17.5299 17.1335Z" fill="#D173CC" mask="url(#path-6-inside-1_11_359)"/>
<path d="M35.0482 18.9724V18.1186H35.8426V17.8046H35.0482V17.3792H35.8423V17.0651H35.171L36.2661 15.0753H35.7143L34.8199 16.8053H34.792L33.8976 15.0753H33.3432L34.4354 17.0651H33.7583V17.3795H34.5611V17.8049H33.7589V18.1186H34.5611V18.9724H35.0489H35.0482Z" fill="#D173CC"/>
<path d="M31.99 10.6747C31.99 13.8784 29.4558 16.4499 26.3609 16.4499C23.2659 16.4499 20.7317 13.8784 20.7317 10.6747C20.7317 7.47101 23.2659 4.89952 26.3609 4.89952C29.4558 4.89952 31.99 7.47101 31.99 10.6747Z" stroke="#D173CC" stroke-width="1.29904"/>
<path d="M28.6202 18.0628C28.836 19.3225 29.4144 20.4877 30.2812 21.4091C31.148 22.3305 32.2639 22.9662 33.4859 23.2348C34.7079 23.5034 35.9805 23.3927 37.1407 22.9169C38.3008 22.441 39.2958 21.6217 39.9982 20.5638C40.7005 19.5058 41.0783 18.2575 41.0832 16.9785C41.0881 15.6996 40.7199 14.4482 40.0256 13.3847C39.3313 12.3212 38.3427 11.4939 37.1862 11.0088C36.0297 10.5237 34.758 10.4028 33.534 10.6616L33.8139 12.0479C34.7683 11.8461 35.7597 11.9404 36.6614 12.3186C37.5631 12.6969 38.3339 13.3419 38.8752 14.171C39.4165 15.0002 39.7036 15.9758 39.6998 16.973C39.696 17.9701 39.4014 18.9434 38.8538 19.7683C38.3062 20.5931 37.5305 21.2319 36.6259 21.6029C35.7214 21.9739 34.7292 22.0602 33.7765 21.8508C32.8237 21.6414 31.9537 21.1457 31.2779 20.4274C30.602 19.709 30.1511 18.8005 29.9828 17.8184L28.6202 18.0628Z" fill="#D173CC"/>
<path d="M23.8849 18.2793C23.6691 19.5391 23.0908 20.7043 22.2239 21.6257C21.3571 22.5471 20.2412 23.1828 19.0192 23.4514C17.7972 23.72 16.5246 23.6093 15.3645 23.1334C14.2043 22.6576 13.2093 21.8382 12.507 20.7803C11.8046 19.7224 11.4268 18.474 11.4219 17.1951C11.417 15.9161 11.7853 14.6648 12.4795 13.6013C13.1738 12.5378 14.1625 11.7105 15.319 11.2254C16.4754 10.7402 17.7471 10.6193 18.9711 10.8782L18.6912 12.2645C17.7369 12.0627 16.7454 12.157 15.8437 12.5352C14.942 12.9134 14.1712 13.5584 13.6299 14.3876C13.0886 15.2168 12.8015 16.1924 12.8053 17.1896C12.8091 18.1867 13.1037 19.16 13.6513 19.9848C14.1989 20.8096 14.9747 21.4484 15.8792 21.8195C16.7837 22.1905 17.7759 22.2768 18.7287 22.0673C19.6814 21.8579 20.5514 21.3623 21.2272 20.6439C21.9031 19.9255 22.354 19.0171 22.5223 18.0349L23.8849 18.2793Z" fill="#D173CC"/>
<path d="M24.25 7.72125H25.7834C26.4696 7.72125 26.9759 8.04469 27.0912 8.691H24.25V9.28219H27.0912C26.9809 9.93806 26.5 10.2514 25.8183 10.2514H24.25V10.9922L26.7458 13.875H27.9327L25.4284 10.9972H25.9094C27.2121 10.9871 27.8584 10.167 27.9839 9.28219H28.75V8.691H27.9934C27.9484 8.25337 27.7926 7.94006 27.5474 7.71675H28.75V7.125H24.25V7.72125Z" fill="#D173CC"/>
</g>
<defs>
<clipPath id="clip0_11_359">
<rect width="51" height="45.3333" fill="white"/>
</clipPath>
</defs>
</svg>
