<svg width="35" height="34" viewBox="0 0 35 34" fill="none" xmlns="http://www.w3.org/2000/svg">
<path fill-rule="evenodd" clip-rule="evenodd" d="M8.21374 8.34994L0.699478 0.660927L1.10335 0.266235L8.40658 7.73931L11.176 4.64407L11.369 4.42841L11.5798 4.62661L20.129 12.6628L26.4018 7.06812L26.603 6.88865L26.7915 7.08139L34.6553 15.1199L34.2516 15.5148L26.5764 7.66903L20.3119 13.2563L20.1189 13.4284L19.9306 13.2513L11.4039 5.23627L8.6261 8.34086L8.42477 8.56588L8.21374 8.34994Z" fill="#DA7070"/>
<rect x="2.40702" y="10.3569" width="6.77481" height="23.2013" rx="0.416648" stroke="#DA7070" stroke-width="0.564706"/>
<rect x="14.2901" y="15.5995" width="6.77481" height="17.9588" rx="0.416648" stroke="#DA7070" stroke-width="0.564706"/>
<rect x="26.1731" y="18.046" width="6.77481" height="15.5123" rx="0.416648" stroke="#DA7070" stroke-width="0.564706"/>
<ellipse cx="26.4706" cy="6.93389" rx="4.23529" ry="4.33379" fill="#DA7070"/>
<path d="M25.1003 5.64119H26.0341C26.452 5.64119 26.7603 5.83816 26.8305 6.23176H25.1003V6.5918H26.8305C26.7634 6.99122 26.4705 7.18203 26.0553 7.18203H25.1003V7.63318L26.6202 9.3888H27.343L25.8179 7.63626H26.1108C26.9042 7.6301 27.2978 7.13064 27.3742 6.5918H27.8407V6.23176H27.38C27.3526 5.96525 27.2577 5.77445 27.1083 5.63845H27.8407V5.27808H25.1003V5.64119Z" fill="white"/>
</svg>
