<svg width="74" height="73" viewBox="0 0 74 73" fill="none" xmlns="http://www.w3.org/2000/svg">
<ellipse cx="37" cy="36.5" rx="37" ry="36.5" fill="#E9FBF2"/>
<path d="M54 16C52.346 16 51 17.346 51 19C51 19.888 51.396 20.679 52.011 21.229L43.211 35.26C42.8301 35.0892 42.4174 35.0007 42 35C41.132 35 40.356 35.376 39.807 35.967L30.734 30.222C30.902 29.848 31 29.436 31 29C31 27.346 29.654 26 28 26C26.346 26 25 27.346 25 29C25 29.904 25.41 30.706 26.044 31.256L19.149 42.231C18.7851 42.0785 18.3945 42 18 42C16.346 42 15 43.346 15 45C15 46.654 16.346 48 18 48C19.654 48 21 46.654 21 45C21 44.112 20.605 43.322 19.99 42.772L26.894 31.782C27.237 31.92 27.609 32 28 32C28.859 32 29.629 31.633 30.176 31.053L39.254 36.801C39.0872 37.1788 39.0007 37.5871 39 38C39 39.654 40.346 41 42 41C43.654 41 45 39.654 45 38C45 37.137 44.629 36.364 44.043 35.816L52.853 21.77C53.207 21.917 53.594 22 54 22C55.654 22 57 20.654 57 19C57 17.346 55.654 16 54 16ZM20 45C20 46.103 19.103 47 18 47C16.897 47 16 46.103 16 45C16 43.897 16.897 43 18 43C19.103 43 20 43.897 20 45ZM28 31C26.897 31 26 30.103 26 29C26 27.897 26.897 27 28 27C29.103 27 30 27.897 30 29C30 30.103 29.103 31 28 31ZM42 40C40.897 40 40 39.103 40 38C40 36.897 40.897 36 42 36C43.103 36 44 36.897 44 38C44 39.103 43.103 40 42 40ZM54 21C52.897 21 52 20.103 52 19C52 17.897 52.897 17 54 17C55.103 17 56 17.897 56 19C56 20.103 55.103 21 54 21Z" fill="#63AE8C"/>
</svg>
